Coordinates
version=1
nRows=10
nColumns=63
inDegrees=yes

Units are S.I. units (second, meters, Newtons, ...)
If the header above contains a line with 'inDegrees', this indicates whether rotational values are in degrees (yes) or radians (no).

endheader
time	pelvis_tilt	pelvis_list	pelvis_rotation	pelvis_tx	pelvis_ty	pelvis_tz	hip_flexion_r	hip_adduction_r	hip_rotation_r	knee_angle_r	knee_angle_r_beta	ankle_angle_r	subtalar_angle_r	mtp_angle_r	hip_flexion_l	hip_adduction_l	hip_rotation_l	knee_angle_l	knee_angle_l_beta	ankle_angle_l	subtalar_angle_l	mtp_angle_l	L5_S1_Flex_Ext	L5_S1_Lat_Bending	L5_S1_axial_rotation	L4_L5_Flex_Ext	L4_L5_Lat_Bending	L4_L5_axial_rotation	L3_L4_Flex_Ext	L3_L4_Lat_Bending	L3_L4_axial_rotation	L2_L3_Flex_Ext	L2_L3_Lat_Bending	L2_L3_axial_rotation	L1_L2_Flex_Ext	L1_L2_Lat_Bending	L1_L2_axial_rotation	L1_T12_Flex_Ext	L1_T12_Lat_Bending	L1_T12_axial_rotation	Abs_r3	Abs_r2	Abs_r1	Abs_t1	Abs_t2	neck_flexion	neck_bending	neck_rotation	arm_flex_r	arm_add_r	arm_rot_r	elbow_flex_r	pro_sup_r	wrist_flex_r	wrist_dev_r	arm_flex_l	arm_add_l	arm_rot_l	elbow_flex_l	pro_sup_l	wrist_flex_l	wrist_dev_l
      3.17073171	     -9.19117957	     -4.09862701	     90.56989514	      0.19887050	      0.92229732	      0.66956443	     -2.70965567	     -5.44062949	      6.99944539	      2.92567413	      0.05106265	     23.08909443	    -11.43701880	      0.00000000	     -0.80073654	      4.43863081	     -1.06021710	      4.94297923	      0.08627126	     22.42925106	     10.47383954	      0.00000000	      0.02545438	     -0.51953193	     -0.95614187	      0.04727133	     -0.69097746	     -1.01590074	      0.04181900	     -1.26318993	     -1.01590074	      0.02909181	     -1.26318993	     -0.83662414	      0.02363694	     -1.05942951	     -0.77686527	      0.01454463	     -0.80475496	     -0.71710641	      0.18181808	     -5.87704908	     -5.31777426	      0.00000000	      0.00000000	     12.12998579	      1.40180606	      1.68856414	   -159.38056995	    -92.98393450	   -104.18409561	      6.86348347	      7.49494012	     -8.41410423	      7.22862977	   -112.91812331	    -83.98230580	    -49.24131480	      4.31859169	     13.82649582	     -8.76003772	      7.81126309
      3.19512195	     -9.11246832	     -3.98920807	     90.68353642	      0.19876498	      0.92238259	      0.66950714	     -2.86704534	     -5.31996567	      7.29785677	      2.87153189	      0.05011769	     22.78102424	    -12.12208530	      0.00000000	     -0.90304284	      4.31673051	     -1.20523184	      4.88668021	      0.08528866	     22.58950558	     10.86756527	      0.00000000	      0.03006740	     -0.51162655	     -0.99360216	      0.05583817	     -0.68046332	     -1.05570230	      0.04939773	     -1.24396880	     -1.05570230	      0.03436403	     -1.24396880	     -0.86940189	      0.02792059	     -1.04330887	     -0.80730176	      0.01718051	     -0.79250953	     -0.74520162	      0.21476843	     -5.78762190	     -5.52611714	      0.00000000	      0.00000000	     11.43653023	      1.10447785	      1.14966230	   -158.40359921	    -93.04778746	   -103.32558265	      6.91385119	      7.31175558	     -8.28410760	      6.51444127	   -112.79127455	    -83.97149166	    -48.66204542	      4.28581949	     13.74997720	     -8.78293550	      8.16823999
      3.21951220	     -9.00428809	     -3.89129066	     90.74290007	      0.19882451	      0.92248061	      0.66963378	     -2.92252252	     -5.18109254	      6.61415298	      2.92298880	      0.05101578	     22.86402358	    -11.31490104	      0.00000000	     -0.97107141	      4.15938070	     -1.51053774	      4.84418408	      0.08454696	     22.73161118	     11.30625380	      0.00000000	      0.03068601	     -0.49932697	     -1.01128387	      0.05698700	     -0.66410488	     -1.07448911	      0.05041405	     -1.21406361	     -1.07448911	      0.03507105	     -1.21406361	     -0.88487338	      0.02849503	     -1.01822757	     -0.82166814	      0.01753399	     -0.77345748	     -0.75846290	      0.21918713	     -5.64848660	     -5.62445748	      0.00000000	      0.00000000	     10.86312584	      0.83478563	      0.85174024	   -158.45881533	    -93.04857883	   -103.11372558	      6.97935498	      6.69832256	     -7.99171003	      5.71083926	   -112.19499749	    -84.08319870	    -49.07403872	      4.19258993	     14.75291092	     -8.70106714	      8.15007700
      3.24390244	     -8.94054897	     -3.76254522	     90.70783657	      0.19921819	      0.92255979	      0.66974067	     -3.09723086	     -5.04721747	      7.82568135	      2.67881864	      0.04675421	     22.19057689	    -13.09152745	      0.00000000	     -1.14616888	      4.09614167	     -0.61528094	      4.68173348	      0.08171166	     22.50417877	      9.96587904	      0.00000000	      0.03043036	     -0.49452503	     -1.04562044	      0.05651221	     -0.65771829	     -1.11097172	      0.04999403	     -1.20238816	     -1.11097172	      0.03477885	     -1.20238816	     -0.91491789	      0.02825763	     -1.00843544	     -0.84956661	      0.01738791	     -0.76601927	     -0.78421533	      0.21736099	     -5.59416604	     -5.81542721	      0.00000000	      0.00000000	     10.27238604	      0.73432898	      0.89363500	   -154.76996638	    -93.23814998	   -100.44572157	      7.01981200	      7.58524331	     -7.84568944	      5.09221095	   -112.21926925	    -83.92169011	    -48.92106534	      4.25713379	     14.31850633	     -8.55182700	      7.60514321
      3.26829268	     -8.87278009	     -3.69636485	     90.70363489	      0.19947801	      0.92270788	      0.66992043	     -3.12289516	     -4.94287274	      7.79071785	      2.57476793	      0.04493818	     22.13669501	    -12.99527332	      0.00000000	     -1.21029705	      4.01974331	     -0.21899621	      4.62603072	      0.08073947	     22.22714516	      9.19774115	      0.00000000	      0.03735684	     -0.48725944	     -1.06915478	      0.06937538	     -0.64805505	     -1.13597695	      0.06137355	     -1.18472260	     -1.13597695	      0.04269513	     -1.18472260	     -0.93551043	      0.03468956	     -0.99361945	     -0.86868826	      0.02134570	     -0.75476487	     -0.80186608	      0.26683616	     -5.51197621	     -5.94631814	      0.00000000	      0.00000000	      9.75672967	      0.57116523	      0.82288651	   -152.15779289	    -93.43155514	    -96.98530651	      6.86347746	      7.05309987	     -7.67620619	      4.48344360	   -112.02403924	    -83.91485938	    -48.77579762	      4.32359006	     13.87969945	     -8.70698570	      6.90378607
      3.29268293	     -8.80238392	     -3.68002260	     90.43736052	      0.20008090	      0.92278656	      0.67040738	     -2.94445076	     -4.85373664	      7.09504000	      2.64099623	      0.04609408	     22.48106043	    -11.56508248	      0.00000000	     -1.17129157	      3.92491603	     -0.73831645	      4.66988160	      0.08150481	     22.08564069	      9.32510061	      0.00000000	      0.04317526	     -0.47932403	     -1.03087863	      0.08018078	     -0.63750096	     -1.09530854	      0.07093264	     -1.16542844	     -1.09530854	      0.04934501	     -1.16542844	     -0.90201880	      0.04009255	     -0.97743756	     -0.83758889	      0.02467035	     -0.74247292	     -0.77315897	      0.30839659	     -5.42220927	     -5.73343768	      0.00000000	      0.00000000	      9.43614979	      0.36222879	      0.60025760	   -151.17918009	    -93.59177942	    -95.58778390	      6.69177041	      6.95116481	     -7.47523956	      3.98205629	   -111.75515211	    -84.06628464	    -48.83379032	      4.17097043	     14.15162581	     -8.45998270	      6.54429120
      3.31707317	     -8.59806745	     -3.66063668	     90.13085713	      0.20010793	      0.92281393	      0.67097055	     -2.77726971	     -4.66289640	      6.95322887	      2.67096971	      0.04661722	     22.60750034	    -10.87598445	      0.00000000	     -1.20126981	      3.79414160	     -0.04563344	      4.54500106	      0.07932523	     21.80573274	      7.78222643	      0.00000000	      0.04437751	     -0.44011513	     -1.09006946	      0.08241347	     -0.58535313	     -1.15819880	      0.07290781	     -1.07009594	     -1.15819880	      0.05071906	     -1.07009594	     -0.95381078	      0.04120896	     -0.89748278	     -0.88568144	      0.02535731	     -0.68173834	     -0.81755210	      0.31698412	     -4.97867041	     -6.06263933	      0.00000000	      0.00000000	      9.26966556	      0.03539697	      1.51237587	   -135.46719997	    -93.97513321	    -77.92427982	      6.57924653	      6.01814469	     -7.45805547	      4.32604711	   -107.38038574	    -83.55146670	    -43.22600575	      4.07237104	     12.71428452	     -8.33882017	      6.23386405
      3.34146341	     -8.56345996	     -3.72294195	     89.83430033	      0.20061629	      0.92274889	      0.67158513	     -2.52267844	     -4.61724588	      6.61395300	      2.72356961	      0.04753526	     22.89578555	     -9.96074182	      0.00000000	     -1.07698777	      3.76752169	     -0.40655473	      4.53513621	      0.07915306	     21.78805469	      7.78856139	      0.00000000	      0.04512517	     -0.43731993	     -1.03373448	      0.08380195	     -0.58163551	     -1.09834289	      0.07413614	     -1.06329968	     -1.09834289	      0.05157356	     -1.06329968	     -0.90451767	      0.04190323	     -0.89178280	     -0.83990927	      0.02578452	     -0.67740857	     -0.77530086	      0.32232457	     -4.94705053	     -5.74932107	      0.00000000	      0.00000000	      9.35674564	      0.04901736	      1.41782645	   -135.73538060	    -94.06766416	    -78.06639334	      6.49908292	      5.98894289	     -7.48052512	      4.19321056	   -107.50751257	    -83.66161638	    -43.69385108	      4.04976726	     12.77464956	     -8.37101570	      6.10158567
      3.36585366	     -8.53517483	     -3.82295719	     89.53812028	      0.20117872	      0.92259057	      0.67220556	     -2.24495933	     -4.56444126	      6.63783281	      2.75888686	      0.04815166	     23.07662711	     -9.56658949	      0.00000000	     -0.90428688	      3.72608044	     -1.19738330	      4.54757632	      0.07937018	     21.89347126	      8.35780306	      0.00000000	      0.04787476	     -0.43803334	     -0.97220773	      0.08890823	     -0.58258434	     -1.03297072	      0.07865345	     -1.06503426	     -1.03297072	      0.05471607	     -1.06503426	     -0.85068177	      0.04445651	     -0.89323759	     -0.78991878	      0.02735564	     -0.67851364	     -0.72915580	      0.34196466	     -4.95512075	     -5.40712775	      0.00000000	      0.00000000	      9.51047370	      0.15711338	      1.26266426	   -136.22864429	    -94.12334065	    -78.14756611	      6.49136736	      5.72439984	     -7.64613564	      4.17587182	   -108.37960302	    -83.72374253	    -45.10989070	      4.12575050	     13.02452898	     -8.43669159	      6.02771165
      3.39024390	     -8.46622921	     -3.93190623	     89.22138171	      0.20164689	      0.92239751	      0.67278247	     -1.99034317	     -4.46515332	      7.24281099	      2.75265827	      0.04804295	     23.08142240	     -9.94231503	      0.00000000	     -0.73226323	      3.64180036	     -2.05853649	      4.56460912	      0.07966746	     22.03562292	      8.94668387	      0.00000000	      0.05095454	     -0.43122634	     -0.90355884	      0.09462768	     -0.57353103	     -0.96003127	      0.08371322	     -1.04848371	     -0.96003127	      0.05823595	     -1.04848371	     -0.79061399	      0.04731639	     -0.87935674	     -0.73414156	      0.02911543	     -0.66796959	     -0.67766913	      0.36396321	     -4.87811856	     -5.02532322	      0.00000000	      0.00000000	      9.71619636	      0.21574724	      1.14707148	   -136.73401299	    -94.07522485	    -78.91484827	      6.54344271	      5.89458363	     -7.73538957	      4.15667085	   -108.61442040	    -83.80671668	    -44.99714420	      4.08866408	     12.62621254	     -8.34614485	      6.05388112
